<svg width="22" height="11" viewBox="0 0 22 11" fill="none" xmlns="http://www.w3.org/2000/svg">
<path d="M21.669 1.74329C22.0795 1.37384 22.1128 0.741545 21.7433 0.331035C21.3738 -0.0794747 20.7415 -0.112753 20.331 0.256706L21.669 1.74329ZM11 10L10.331 10.7433L11.669 10.7433L11 10ZM1.66896 0.256705C1.25846 -0.112754 0.626165 -0.0794756 0.256706 0.331034C-0.112753 0.741544 -0.0794754 1.37383 0.331036 1.74329L1.66896 0.256705ZM20.331 0.256706L10.331 9.2567L11.669 10.7433L21.669 1.74329L20.331 0.256706ZM11.669 9.2567L1.66896 0.256705L0.331036 1.74329L10.331 10.7433L11.669 9.2567Z" fill="#020202"/>
</svg>
