<svg width="22" height="11" viewBox="0 0 22 11" fill="none" xmlns="http://www.w3.org/2000/svg">
<path d="M0.331035 9.25671C-0.0794747 9.62616 -0.112753 10.2585 0.256706 10.669C0.626165 11.0795 1.25845 11.1128 1.66896 10.7433L0.331035 9.25671ZM11 1L11.669 0.256707L10.331 0.256707L11 1ZM20.331 10.7433C20.7415 11.1128 21.3738 11.0795 21.7433 10.669C22.1128 10.2585 22.0795 9.62616 21.669 9.2567L20.331 10.7433ZM1.66896 10.7433L11.669 1.74329L10.331 0.256707L0.331035 9.25671L1.66896 10.7433ZM10.331 1.74329L20.331 10.7433L21.669 9.2567L11.669 0.256707L10.331 1.74329Z" fill="#020202"/>
</svg>
