<svg width="19" height="35" viewBox="0 0 19 35" fill="none" xmlns="http://www.w3.org/2000/svg">
<path d="M14.2015 33.7365C15.1605 34.7298 16.7432 34.7575 17.7365 33.7985C18.7298 32.8395 18.7575 31.2568 17.7985 30.2635L14.2015 33.7365ZM2 17.5L0.201495 15.7635L0.201494 19.2365L2 17.5ZM17.7985 4.73649C18.7575 3.7432 18.7298 2.16053 17.7365 1.2015C16.7432 0.242464 15.1605 0.270229 14.2015 1.26352L17.7985 4.73649ZM17.7985 30.2635L3.7985 15.7635L0.201494 19.2365L14.2015 33.7365L17.7985 30.2635ZM3.7985 19.2365L17.7985 4.73649L14.2015 1.26352L0.201495 15.7635L3.7985 19.2365Z" fill="#646464"/>
</svg>
